<?xml version="1.0"?>
<svg version="1.1" xmlns="http://www.w3.org/2000/svg" width="410" height="90" style=""><path fill="#1a1a1a" d="M42.765,66.06c0,0.9-0.225,1.26-1.08,1.71c-2.475,1.26-6.66,2.07-10.08,2.07c-9.36,0-14.67-6.48-14.67-16.02c0-9.405,6.075-16.245,15.255-16.245c2.88,0,5.535,0.495,8.235,1.71c0.495,0.225,0.63,0.495,0.63,0.81c0,0.18-0.09,0.36-0.135,0.54l-1.035,2.7c-0.18,0.45-0.36,0.63-0.675,0.63c-0.18,0-0.405-0.09-0.63-0.18c-1.485-0.63-4.05-1.305-6.12-1.305c-2.43,0-4.77,0.9-6.345,2.565c-1.89,1.98-2.97,4.905-2.97,8.595c0,6.975,3.285,11.34,8.685,11.34c1.845,0,3.87-0.27,5.085-0.765l0-8.595l-4.005,0c-0.63,0-0.99-0.225-0.99-0.99l0-2.745c0-0.72,0.36-0.9,1.035-0.9l8.73,0c0.765,0,1.08,0.225,1.08,1.035l0,14.04z M71.4525,58.365c0,6.48-3.96,11.475-10.98,11.475c-7.335,0-10.71-4.95-10.71-11.52c0-6.48,3.96-11.43,10.98-11.43c7.335,0,10.71,4.86,10.71,11.475z M65.8275,58.365c0-3.69-1.17-7.2-5.13-7.2c-4.005,0-5.31,3.465-5.31,7.065c0,3.69,1.125,7.335,5.13,7.335c3.96,0,5.31-3.51,5.31-7.2z M99.195,58.095c0,3.42-1.035,6.525-2.925,8.73c-1.665,1.89-4.005,3.06-6.93,3.06c-2.07,0-4.14-0.765-5.445-2.115l0,10.08c0,0.9-0.405,1.17-1.17,1.17l-3.15,0c-0.72,0-1.08-0.405-1.08-1.17l0-29.34c0-0.765,0.36-1.035,1.08-1.035l2.7,0c0.765,0,1.17,0.18,1.215,0.855l0.045,1.215c1.305-1.485,3.87-2.61,6.3-2.61c2.97,0,5.04,1.125,6.525,2.745c1.935,2.115,2.835,5.265,2.835,8.415z M93.525,58.365c0-2.115-0.405-3.96-1.305-5.22c-0.855-1.215-2.115-1.845-3.69-1.845c-1.665,0-3.735,1.08-4.635,2.205l0,9.81c0.9,1.215,2.7,2.205,4.41,2.205c1.575,0,2.835-0.72,3.6-1.665c1.125-1.395,1.62-3.285,1.62-5.49z M125.9025,68.4c0,0.675-0.135,0.9-0.72,0.9l-3.96,0c-0.63,0-0.765-0.18-0.765-0.9l0-12.51c0-2.43-0.675-4.23-3.375-4.23c-1.755,0-4.005,0.945-5.4,2.16l0,14.58c0,0.675-0.18,0.9-0.855,0.9l-3.87,0c-0.54,0-0.72-0.225-0.72-0.81l0-29.745c0-0.81,0.36-1.035,0.99-1.125l3.105-0.405c0.18-0.045,0.405-0.045,0.585-0.045c0.495,0,0.765,0.225,0.765,0.855l0,11.295c1.89-1.575,4.725-2.43,7.11-2.43c5.04,0,7.11,3.195,7.11,8.055l0,13.455z M140.325,41.76c0,1.755-1.53,2.835-3.015,2.835s-3.06-0.99-3.06-2.79s1.485-2.88,3.06-2.88c1.53,0,3.015,1.035,3.015,2.835z M140.055,68.175c0,0.81-0.36,1.125-1.125,1.125l-3.15,0c-0.81,0-1.17-0.315-1.17-1.125l0-19.665c0-0.765,0.45-1.035,1.17-1.035l3.15,0c0.72,0,1.125,0.225,1.125,1.035l0,19.665z M163.2075,62.865c0,4.725-4.095,6.975-8.685,6.975c-2.34,0-4.905-0.675-6.93-1.575c-0.405-0.18-0.54-0.45-0.54-0.72c0-0.135,0.045-0.27,0.09-0.405l0.72-2.295c0.135-0.45,0.36-0.63,0.63-0.63c0.135,0,0.27,0,0.495,0.09c1.98,0.81,4.095,1.395,5.67,1.395c1.98,0,3.33-0.9,3.33-2.385c0-1.26-0.855-1.935-2.7-2.655l-3.555-1.35c-2.565-0.945-4.635-2.925-4.635-5.985c0-4.41,4.14-6.435,8.145-6.435c2.16,0,4.275,0.36,6.525,1.35c0.36,0.18,0.54,0.36,0.54,0.63c0,0.135-0.045,0.27-0.09,0.45l-0.765,2.43c-0.09,0.315-0.315,0.495-0.63,0.495c-0.135,0-0.315-0.045-0.45-0.09c-1.485-0.585-3.42-1.08-4.86-1.08c-1.89,0-2.835,1.035-2.835,2.07c0,0.99,0.495,1.62,2.205,2.295l4.05,1.665c2.385,0.99,4.275,2.835,4.275,5.76z M189.51,68.4c0,0.675-0.135,0.9-0.72,0.9l-3.96,0c-0.63,0-0.765-0.18-0.765-0.9l0-12.51c0-2.43-0.675-4.23-3.375-4.23c-1.755,0-4.005,0.945-5.4,2.16l0,14.58c0,0.675-0.18,0.9-0.855,0.9l-3.87,0c-0.54,0-0.72-0.225-0.72-0.81l0-29.745c0-0.81,0.36-1.035,0.99-1.125l3.105-0.405c0.18-0.045,0.405-0.045,0.585-0.045c0.495,0,0.765,0.225,0.765,0.855l0,11.295c1.89-1.575,4.725-2.43,7.11-2.43c5.04,0,7.11,3.195,7.11,8.055l0,13.455z M206.3625,58.815c0,0.855-0.27,1.215-1.125,1.215l-7.56,0c-0.855,0-1.08-0.45-1.08-1.17l0-2.925c0-0.765,0.225-1.08,1.035-1.08l7.56,0c0.9,0,1.17,0.315,1.17,1.125l0,2.835z M239.19,68.58c0,0.45-0.225,0.72-0.81,0.72l-4.005,0c-0.945,0-1.26-0.36-1.53-1.08l-2.34-6.615l-11.385,0l-2.34,6.75c-0.18,0.585-0.495,0.945-1.215,0.945l-4.005,0c-0.45,0-0.63-0.225-0.63-0.585c0-0.135,0-0.315,0.09-0.495l10.98-29.16c0.225-0.54,0.54-0.9,1.215-0.9l3.6,0c0.675,0,1.08,0.315,1.26,0.81l11.025,29.025c0.09,0.225,0.09,0.405,0.09,0.585z M228.975,57.24l-3.195-9.495c-0.405-1.26-0.675-2.205-0.9-2.925l-0.09,0c-0.225,0.765-0.495,1.71-0.945,2.97l-3.195,9.45l8.325,0z M265.8975,47.97c0,6.975-5.265,10.395-11.88,10.395c-0.36,0-2.385-0.09-2.7-0.135l0,9.99c0,0.675-0.27,1.08-1.125,1.08l-3.6,0c-0.72,0-1.08-0.315-1.08-1.215l0-28.71c0-0.9,0.27-1.215,1.125-1.215l6.525,0c4.77,0,8.28,0.9,10.485,3.42c1.44,1.665,2.25,3.96,2.25,6.39z M260.0475,48.195c0-4.095-2.52-5.535-6.39-5.535l-2.34,0l0,11.16c0.36,0,2.385,0.045,2.655,0.045c3.825,0,6.075-1.8,6.075-5.67z M285.315,40.995c0,0.72-0.315,0.945-0.945,0.945l-2.565,0l0,23.58l2.43,0c0.63,0,0.945,0.405,0.945,0.945l0,1.935c0,0.54-0.225,0.9-0.81,0.9l-10.71,0c-0.585,0-0.9-0.36-0.9-0.855l0-2.025c0-0.63,0.27-0.9,0.9-0.9l2.385,0l0-23.58l-2.61,0c-0.63,0-0.9-0.315-0.9-0.9l0-1.98c0-0.495,0.27-0.9,0.81-0.9l11.025,0c0.63,0,0.945,0.405,0.945,0.855l0,1.98z"/><path fill="#00c251" d="M301.9725,66.76q0-1.28-0.78-2.06t-2.06-0.78q-0.88,0-1.56,0.8t-0.68,2.04q0,0.84,0.7,1.54t1.54,0.7q1.24,0,2.04-0.68t0.8-1.56z M325.5261,40.88l-2.56,0l0,18.6q0,3-2,5t-5,2t-5-2q-2.04-1.96-2.04-5l0-4.52l-2.48,0l0,4.52q0,4.04,2.88,6.8q2.84,2.72,6.64,2.72q4.16,0,6.88-2.72q2.68-2.68,2.68-6.8l0-18.6z M338.0797,43.92l15.08,0l0-3.04l-15.08,0q-2.96,0-4.96,2.32q-2.04,2.36-2.04,5.72q0,3.04,2.04,5.28q2,2.28,4.96,2.28l4,0l4.08,0q1.8,0,3.2,1.52q1.32,1.6,1.32,3.48q0,2.24-1.3,3.64t-3.22,1.4l-15.08,0l0,2.48l15.08,0q3,0,5-2.08t2-5.44q0-3.04-2-5.28q-2.04-2.24-5-2.24l-4.08,0l-4,0q-1.84,0-3.16-1.6q-1.36-1.48-1.36-3.44q0-2.24,1.3-3.62t3.22-1.38z"/></svg>
